<svg xmlns="http://www.w3.org/2000/svg" xmlns:xlink="http://www.w3.org/1999/xlink" version="1.1"  viewBox="0 0 300 300">
<g clip-path="url(#clip_3)">
<path transform="matrix(.014505887,0,0,-.014499637,-212.68032,410.60859)" d="M23426.5 24943.1H27024.3C27647.8 24943.1 28158.3 24431.9 28158.3 23808.4V23421.1H22291.702V23808.4C22291.702 24431.9 22802.202 24943.1 23426.502 24943.1" fill="#635bff"/>
<path transform="matrix(.014505887,0,0,-.014499637,-212.68032,410.60859)" d="M28158.3 14814.2V14066.9C28158.3 13443.4 27647.8 12932.2 27024.3 12932.2H23426.5C22802.2 12932.2 22291.7 13443.4 22291.7 14066.9V14814.2H28158.299" fill="#635bff"/>
<path transform="matrix(.014505887,0,0,-.014499637,-212.68032,410.60859)" d="M25225 14444.2C25537.1 14444.2 25790.2 14188.5 25790.2 13873.2 25790.2 13557.9 25537.1 13302.3 25225 13302.3 24912.8 13302.3 24659.8 13557.899 24659.8 13873.2 24659.8 14188.5 24912.8 14444.2 25225 14444.2" fill="#ffffff"/>
<path transform="matrix(.014505887,0,0,-.014499637,-212.68032,410.60859)" d="M24322.8 24340.5H26127.102C26206.702 24340.5 26271.202 24272.5 26271.202 24188.6V24175.6C26271.202 24091.7 26206.702 24023.7 26127.102 24023.7H24322.8C24243.3 24023.7 24178.8 24091.7 24178.8 24175.6V24188.6C24178.8 24272.5 24243.3 24340.5 24322.8 24340.5" fill="#ffffff"/>
<path transform="matrix(.014505887,0,0,-.014499637,-212.68032,410.60859)" d="M28873.9 20086 30504 19109.7V12536.199C28669.5 11436.699 26834.9 10338.699 24999.6 9240.799 23165.1 10338.699 21330.5 11436.699 19496 12536.199V19109.7L21576.8 20355.299V19801.6L19972.602 18841.2V12804L24999.602 9794.4 30027.403 12804V18841.2L28873.903 19531.7 28873.9 20086ZM25122 22331.7 27443.3 20942.1V20388.4L24999.602 21850.8 23006.702 20657.702V21212.102L24999.602 22405.202 25122.002 22331.702" fill="#16141f"/>
<path transform="matrix(.014505887,0,0,-.014499637,-212.68032,410.60859)" d="M22530.1 23659.4H27919.899V23808.4C27919.899 24054.702 27819.098 24279.3 27657.098 24441.3 27494.399 24604 27270.499 24704.102 27024.297 24704.102H23426.497C23179.497 24704.102 22955.596 24604.002 22792.897 24441.3 22630.897 24279.3 22530.096 24054.702 22530.096 23808.4L22530.1 23659.4ZM22530.1 15052.601H27919.899V23182.702H22530.098L22530.1 15052.601ZM27919.899 14575.9H22530.098V14066.9C22530.098 13820.601 22630.899 13596 22792.899 13434 22955.598 13272 23179.499 13171.2 23426.499 13171.2H27024.299C27270.499 13171.2 27494.399 13272 27657.1 13434 27796.799 13573.7 27890.4 13758.7 27914.2 13964.6V13966.8L27914.899 13968.2V13969.7 13971.101 13972.601L27915.598 13974.7V13975.4 13976.2 13977.601 13979.001 13980.501L27916.297 13982.601V13984.101 13985.501 13987.001 13988.401L27917.098 13989.802V13992.002 13993.402 13994.902 13996.303L27917.797 13997.803V13998.503 13999.903 14001.403 14002.804 14004.204 14006.404 14007.904L27918.497 14009.305V14010.005 14010.705 14012.205 14014.305 14015.805 14017.205 14018.605L27919.196 14020.806V14022.206 14023.706 14025.106 14026.606 14028.706 14030.206 14031.606 14032.307 14033.007 14035.207 14036.707L27919.895 14041.007V14043.106 14043.807 14044.606 14047.406 14049.606 14051.007 14052.507 14053.907 14055.407 14056.107 14057.508 14059.008 14060.408 14062.608 14064.009 14065.409 14066.909L27919.899 14575.9ZM23426.499 25181.4H27024.299C27400.799 25181.4 27744.299 25026.6 27992.7 24778.3L27994.1 24777.5C28242.5 24528.4 28396.6 24185.7 28396.6 23808.4V23763.1 23182.7 15052.6 14066.899 14065.399 14063.999 14062.599 14058.999 14057.499 14056.099 14052.499 14050.999 14049.599 14048.198 14044.599 14043.099 14039.499 14038.099 14035.198 14032.998 14031.598 14030.197 14028.697 14027.297 14025.097 14023.696L28395.9 14022.196V14020.796 14019.3959 14017.195 14015.795 14014.295 14012.895 14010.694 14009.294 14007.894 14006.394 14004.993L28395.1 14002.793V13999.893 13998.492 13997.092 13996.292 13994.892L28394.4 13982.592V13980.492 13978.992L28393.702 13977.592V13976.191 13974.691 13971.092 13969.691 13968.191L28393.002 13966.791V13964.591C28367.803 13628.391 28219.502 13323.791 27994.102 13097.791L27992.702 13097.091C27744.3 12848.69 27400.8 12693.891 27024.3 12693.891H23426.5C23049.2 12693.891 22706.5 12848.69 22457.3 13097.091L22456.602 13097.791C22230.502 13323.791 22082.202 13628.391 22057.002 13964.591 22054.903 13998.491 22053.403 14032.991 22053.403 14066.891V15052.591 23182.692 23763.092 23808.393C22053.403 24185.694 22207.502 24528.393 22456.602 24777.493L22457.3 24778.293C22706.5 25026.594 23049.202 25181.393 23426.5 25181.393" fill="#16141f"/>
</g>
</svg>
