<svg  xmlns="http://www.w3.org/2000/svg" xmlns:xlink="http://www.w3.org/1999/xlink" width="500" zoomAndPan="magnify" viewBox="0 0 375 374.999991" height="500" preserveAspectRatio="xMidYMid meet" version="1.0"><defs><g/><clipPath id="b9bf942795"><path d="M 137 84 L 240.457031 84 L 240.457031 214.84375 L 137 214.84375 Z M 137 84 " clip-rule="nonzero"/></clipPath><clipPath id="ae8dc303ee"><path d="M 201.359375 175.71875 L 216.898438 175.71875 L 216.898438 191.257812 L 201.359375 191.257812 Z M 201.359375 175.71875 " clip-rule="nonzero"/></clipPath><clipPath id="245f665404"><path d="M 209.0625 175.71875 C 204.808594 175.71875 201.359375 179.167969 201.359375 183.421875 C 201.359375 187.679688 204.808594 191.128906 209.0625 191.128906 C 213.316406 191.128906 216.769531 187.679688 216.769531 183.421875 C 216.769531 179.167969 213.316406 175.71875 209.0625 175.71875 " clip-rule="nonzero"/></clipPath><clipPath id="aba904cd09"><path d="M 152.21875 100.027344 L 160.730469 100.027344 L 160.730469 108.535156 L 152.21875 108.535156 Z M 152.21875 100.027344 " clip-rule="nonzero"/></clipPath><clipPath id="21d3de9a25"><path d="M 156.324219 100.027344 C 154.058594 100.027344 152.21875 101.863281 152.21875 104.132812 C 152.21875 106.398438 154.058594 108.234375 156.324219 108.234375 C 158.589844 108.234375 160.425781 106.398438 160.425781 104.132812 C 160.425781 101.863281 158.589844 100.027344 156.324219 100.027344 " clip-rule="nonzero"/></clipPath></defs><g clip-path="url(#b9bf942795)"><path fill="#424669" d="M 192.667969 209.0625 C 192.601562 205.84375 195.15625 203.179688 198.375 203.113281 L 207.265625 202.925781 C 218.820312 202.925781 228.246094 193.625 228.441406 182.121094 C 228.644531 170.277344 218.691406 160.582031 206.839844 160.582031 L 201.640625 160.582031 L 184.039062 200.960938 C 180.359375 209.402344 171.179688 214.015625 162.207031 211.949219 C 156.917969 210.726562 152.386719 207.296875 149.769531 202.546875 C 147.152344 197.792969 146.679688 192.132812 148.476562 187.015625 L 148.59375 186.710938 L 160.398438 158.257812 C 162.4375 152.667969 167.78125 148.921875 173.742188 148.921875 L 194 148.921875 L 212.03125 107.550781 C 212.890625 105.582031 212.964844 103.324219 212.082031 101.367188 C 211.199219 99.414062 209.582031 97.988281 207.53125 97.351562 C 203.875 96.21875 199.898438 98.121094 198.488281 101.675781 L 187.703125 128.804688 C 185.519531 134.300781 181.339844 138.652344 175.929688 141.054688 C 170.273438 143.566406 164.003906 143.664062 158.273438 141.316406 C 152.546875 138.976562 148.136719 134.515625 145.863281 128.757812 L 138.546875 110.226562 C 134.777344 100.683594 139.445312 89.773438 148.945312 85.902344 C 158.332031 82.078125 169.253906 86.527344 173.300781 95.8125 L 177.871094 106.261719 C 179.164062 109.214844 177.816406 112.648438 174.863281 113.9375 C 171.914062 115.226562 168.476562 113.882812 167.183594 110.933594 L 162.609375 100.476562 C 161.070312 96.9375 156.914062 95.246094 153.351562 96.699219 C 149.738281 98.171875 147.964844 102.316406 149.398438 105.945312 L 156.714844 124.476562 C 158.054688 127.871094 160.9375 130.332031 164.640625 131.128906 C 165.988281 131.417969 167.394531 131.433594 168.746094 131.167969 C 172.527344 130.429688 175.503906 127.925781 176.863281 124.5 L 187.644531 97.371094 C 191.292969 88.191406 201.546875 83.292969 210.980469 86.210938 C 216.152344 87.8125 220.410156 91.546875 222.667969 96.46875 C 224.921875 101.386719 224.976562 107.046875 222.8125 112.007812 L 206.722656 148.921875 L 206.765625 148.921875 C 224.78125 148.921875 239.816406 163.21875 240.105469 181.222656 C 240.398438 199.546875 225.589844 214.554688 207.328125 214.589844 L 198.625 214.769531 C 195.398438 214.835938 192.734375 212.28125 192.667969 209.0625 Z M 159.4375 191 C 158.78125 192.984375 158.976562 195.082031 159.988281 196.921875 C 161.023438 198.800781 162.746094 200.101562 164.835938 200.585938 C 168.332031 201.394531 171.914062 199.59375 173.347656 196.300781 L 188.917969 160.578125 L 173.742188 160.578125 C 172.664062 160.578125 171.699219 161.261719 171.339844 162.28125 L 171.222656 162.585938 Z M 159.4375 191 " fill-opacity="1" fill-rule="nonzero"/></g><g clip-path="url(#ae8dc303ee)"><g clip-path="url(#245f665404)"><path fill="#a4aad8" d="M 201.359375 175.71875 L 216.898438 175.71875 L 216.898438 191.257812 L 201.359375 191.257812 Z M 201.359375 175.71875 " fill-opacity="1" fill-rule="nonzero"/></g></g><g fill="#424669" fill-opacity="1"><g transform="translate(71.902715, 270.883048)"><g><path d="M 10.234375 -24.828125 L 10.234375 -18.578125 L 20.296875 -18.578125 L 20.296875 -12.78125 L 10.234375 -12.78125 L 10.234375 -6.015625 L 21.625 -6.015625 L 21.625 0 L 2.71875 0 L 2.71875 -30.84375 L 21.625 -30.84375 L 21.625 -24.828125 Z M 10.234375 -24.828125 "/></g></g></g><g fill="#424669" fill-opacity="1"><g transform="translate(95.670741, 270.883048)"><g><path d="M 10.234375 -32.515625 L 10.234375 0 L 2.71875 0 L 2.71875 -32.515625 Z M 10.234375 -32.515625 "/></g></g></g><g fill="#424669" fill-opacity="1"><g transform="translate(108.631129, 270.883048)"><g><path d="M 21.625 -18.546875 L 21.625 -12.296875 L 2.28125 -12.296875 L 2.28125 -18.546875 Z M 21.625 -18.546875 "/></g></g></g><g fill="#424669" fill-opacity="1"><g transform="translate(134.112564, 270.883048)"><g><path d="M 29.171875 -30.84375 L 18.5 -10.1875 L 18.5 0 L 10.984375 0 L 10.984375 -10.1875 L 0.3125 -30.84375 L 8.828125 -30.84375 L 14.8125 -17.921875 L 20.734375 -30.84375 Z M 29.171875 -30.84375 "/></g></g></g><g fill="#424669" fill-opacity="1"><g transform="translate(163.591948, 270.883048)"><g><path d="M 13.890625 0.34375 C 11.484375 0.34375 9.320312 -0.164062 7.40625 -1.1875 C 5.488281 -2.207031 3.976562 -3.671875 2.875 -5.578125 C 1.78125 -7.484375 1.234375 -9.710938 1.234375 -12.265625 C 1.234375 -14.773438 1.785156 -16.988281 2.890625 -18.90625 C 4.003906 -20.832031 5.53125 -22.304688 7.46875 -23.328125 C 9.40625 -24.359375 11.570312 -24.875 13.96875 -24.875 C 16.375 -24.875 18.539062 -24.359375 20.46875 -23.328125 C 22.40625 -22.304688 23.929688 -20.832031 25.046875 -18.90625 C 26.160156 -16.988281 26.71875 -14.773438 26.71875 -12.265625 C 26.71875 -9.742188 26.148438 -7.519531 25.015625 -5.59375 C 23.890625 -3.675781 22.351562 -2.207031 20.40625 -1.1875 C 18.457031 -0.164062 16.285156 0.34375 13.890625 0.34375 Z M 13.890625 -6.15625 C 15.316406 -6.15625 16.535156 -6.679688 17.546875 -7.734375 C 18.554688 -8.785156 19.0625 -10.296875 19.0625 -12.265625 C 19.0625 -14.222656 18.570312 -15.726562 17.59375 -16.78125 C 16.613281 -17.832031 15.40625 -18.359375 13.96875 -18.359375 C 12.507812 -18.359375 11.296875 -17.835938 10.328125 -16.796875 C 9.359375 -15.765625 8.875 -14.253906 8.875 -12.265625 C 8.875 -10.296875 9.347656 -8.785156 10.296875 -7.734375 C 11.253906 -6.679688 12.453125 -6.15625 13.890625 -6.15625 Z M 13.890625 -6.15625 "/></g></g></g><g fill="#424669" fill-opacity="1"><g transform="translate(191.577591, 270.883048)"><g><path d="M 26.9375 -24.515625 L 26.9375 0 L 19.421875 0 L 19.421875 -3.34375 C 18.660156 -2.257812 17.628906 -1.382812 16.328125 -0.71875 C 15.023438 -0.0625 13.582031 0.265625 12 0.265625 C 10.125 0.265625 8.46875 -0.148438 7.03125 -0.984375 C 5.59375 -1.816406 4.476562 -3.023438 3.6875 -4.609375 C 2.894531 -6.191406 2.5 -8.050781 2.5 -10.1875 L 2.5 -24.515625 L 9.96875 -24.515625 L 9.96875 -11.203125 C 9.96875 -9.566406 10.390625 -8.289062 11.234375 -7.375 C 12.085938 -6.46875 13.234375 -6.015625 14.671875 -6.015625 C 16.140625 -6.015625 17.296875 -6.46875 18.140625 -7.375 C 18.992188 -8.289062 19.421875 -9.566406 19.421875 -11.203125 L 19.421875 -24.515625 Z M 26.9375 -24.515625 "/></g></g></g><g fill="#424669" fill-opacity="1"><g transform="translate(221.188777, 270.883048)"><g><path d="M 17.65625 -24.78125 C 20.53125 -24.78125 22.820312 -23.847656 24.53125 -21.984375 C 26.25 -20.128906 27.109375 -17.578125 27.109375 -14.328125 L 27.109375 0 L 19.640625 0 L 19.640625 -13.3125 C 19.640625 -14.957031 19.210938 -16.234375 18.359375 -17.140625 C 17.515625 -18.046875 16.375 -18.5 14.9375 -18.5 C 13.5 -18.5 12.351562 -18.046875 11.5 -17.140625 C 10.65625 -16.234375 10.234375 -14.957031 10.234375 -13.3125 L 10.234375 0 L 2.71875 0 L 2.71875 -24.515625 L 10.234375 -24.515625 L 10.234375 -21.265625 C 10.992188 -22.347656 12.019531 -23.203125 13.3125 -23.828125 C 14.601562 -24.460938 16.050781 -24.78125 17.65625 -24.78125 Z M 17.65625 -24.78125 "/></g></g></g><g fill="#424669" fill-opacity="1"><g transform="translate(250.799962, 270.883048)"><g><path d="M 12.703125 0.34375 C 10.554688 0.34375 8.648438 -0.0195312 6.984375 -0.75 C 5.316406 -1.476562 4 -2.476562 3.03125 -3.75 C 2.0625 -5.03125 1.519531 -6.460938 1.40625 -8.046875 L 8.828125 -8.046875 C 8.921875 -7.191406 9.316406 -6.5 10.015625 -5.96875 C 10.722656 -5.445312 11.585938 -5.1875 12.609375 -5.1875 C 13.546875 -5.1875 14.269531 -5.367188 14.78125 -5.734375 C 15.289062 -6.097656 15.546875 -6.570312 15.546875 -7.15625 C 15.546875 -7.863281 15.179688 -8.382812 14.453125 -8.71875 C 13.722656 -9.0625 12.535156 -9.4375 10.890625 -9.84375 C 9.140625 -10.25 7.675781 -10.675781 6.5 -11.125 C 5.332031 -11.582031 4.320312 -12.300781 3.46875 -13.28125 C 2.625 -14.269531 2.203125 -15.597656 2.203125 -17.265625 C 2.203125 -18.671875 2.585938 -19.953125 3.359375 -21.109375 C 4.140625 -22.265625 5.28125 -23.179688 6.78125 -23.859375 C 8.289062 -24.535156 10.085938 -24.875 12.171875 -24.875 C 15.242188 -24.875 17.664062 -24.109375 19.4375 -22.578125 C 21.207031 -21.054688 22.226562 -19.035156 22.5 -16.515625 L 15.546875 -16.515625 C 15.429688 -17.367188 15.054688 -18.039062 14.421875 -18.53125 C 13.796875 -19.03125 12.972656 -19.28125 11.953125 -19.28125 C 11.078125 -19.28125 10.40625 -19.113281 9.9375 -18.78125 C 9.46875 -18.445312 9.234375 -17.988281 9.234375 -17.40625 C 9.234375 -16.695312 9.601562 -16.164062 10.34375 -15.8125 C 11.09375 -15.46875 12.257812 -15.117188 13.84375 -14.765625 C 15.65625 -14.296875 17.128906 -13.832031 18.265625 -13.375 C 19.410156 -12.925781 20.414062 -12.195312 21.28125 -11.1875 C 22.144531 -10.175781 22.59375 -8.820312 22.625 -7.125 C 22.625 -5.6875 22.222656 -4.398438 21.421875 -3.265625 C 20.617188 -2.140625 19.460938 -1.253906 17.953125 -0.609375 C 16.441406 0.0234375 14.691406 0.34375 12.703125 0.34375 Z M 12.703125 0.34375 "/></g></g></g><g fill="#424669" fill-opacity="1"><g transform="translate(275.314865, 270.883048)"><g><path d="M 27.765625 -24.515625 L 12.390625 11.640625 L 4.3125 11.640625 L 9.9375 -0.828125 L -0.046875 -24.515625 L 8.34375 -24.515625 L 14.015625 -9.1875 L 19.640625 -24.515625 Z M 27.765625 -24.515625 "/></g></g></g><g fill="#424669" fill-opacity="1"><g transform="translate(134.30646, 290.4642)"><g><path d="M 3.71875 -6.921875 C 4.601562 -6.921875 5.296875 -6.707031 5.796875 -6.28125 C 6.296875 -5.863281 6.546875 -5.285156 6.546875 -4.546875 C 6.546875 -3.804688 6.296875 -3.226562 5.796875 -2.8125 C 5.296875 -2.394531 4.601562 -2.1875 3.71875 -2.1875 L 1.859375 -2.1875 L 1.859375 0 L 1.125 0 L 1.125 -6.921875 Z M 3.703125 -2.828125 C 4.390625 -2.828125 4.910156 -2.976562 5.265625 -3.28125 C 5.628906 -3.582031 5.8125 -4.003906 5.8125 -4.546875 C 5.8125 -5.109375 5.628906 -5.539062 5.265625 -5.84375 C 4.910156 -6.144531 4.390625 -6.296875 3.703125 -6.296875 L 1.859375 -6.296875 L 1.859375 -2.828125 Z M 3.703125 -2.828125 "/></g></g></g><g fill="#424669" fill-opacity="1"><g transform="translate(144.661902, 290.4642)"><g><path d="M 5.859375 0 L 4.265625 -2.21875 C 4.085938 -2.207031 3.90625 -2.203125 3.71875 -2.203125 L 1.859375 -2.203125 L 1.859375 0 L 1.125 0 L 1.125 -6.921875 L 3.71875 -6.921875 C 4.601562 -6.921875 5.296875 -6.707031 5.796875 -6.28125 C 6.296875 -5.863281 6.546875 -5.285156 6.546875 -4.546875 C 6.546875 -4.003906 6.410156 -3.546875 6.140625 -3.171875 C 5.867188 -2.804688 5.476562 -2.539062 4.96875 -2.375 L 6.65625 0 Z M 3.703125 -2.8125 C 4.390625 -2.8125 4.910156 -2.960938 5.265625 -3.265625 C 5.628906 -3.578125 5.8125 -4.003906 5.8125 -4.546875 C 5.8125 -5.109375 5.628906 -5.539062 5.265625 -5.84375 C 4.910156 -6.144531 4.390625 -6.296875 3.703125 -6.296875 L 1.859375 -6.296875 L 1.859375 -2.8125 Z M 3.703125 -2.8125 "/></g></g></g><g fill="#424669" fill-opacity="1"><g transform="translate(155.066736, 290.4642)"><g><path d="M 4.15625 0.0625 C 3.46875 0.0625 2.84375 -0.0859375 2.28125 -0.390625 C 1.726562 -0.703125 1.296875 -1.125 0.984375 -1.65625 C 0.671875 -2.195312 0.515625 -2.800781 0.515625 -3.46875 C 0.515625 -4.125 0.671875 -4.71875 0.984375 -5.25 C 1.296875 -5.789062 1.726562 -6.210938 2.28125 -6.515625 C 2.84375 -6.828125 3.46875 -6.984375 4.15625 -6.984375 C 4.84375 -6.984375 5.457031 -6.832031 6 -6.53125 C 6.550781 -6.226562 6.984375 -5.804688 7.296875 -5.265625 C 7.617188 -4.722656 7.78125 -4.125 7.78125 -3.46875 C 7.78125 -2.800781 7.617188 -2.195312 7.296875 -1.65625 C 6.984375 -1.113281 6.550781 -0.691406 6 -0.390625 C 5.457031 -0.0859375 4.84375 0.0625 4.15625 0.0625 Z M 4.15625 -0.59375 C 4.695312 -0.59375 5.1875 -0.710938 5.625 -0.953125 C 6.070312 -1.203125 6.421875 -1.546875 6.671875 -1.984375 C 6.921875 -2.429688 7.046875 -2.925781 7.046875 -3.46875 C 7.046875 -4 6.921875 -4.484375 6.671875 -4.921875 C 6.421875 -5.367188 6.070312 -5.710938 5.625 -5.953125 C 5.1875 -6.203125 4.695312 -6.328125 4.15625 -6.328125 C 3.601562 -6.328125 3.101562 -6.203125 2.65625 -5.953125 C 2.21875 -5.710938 1.867188 -5.367188 1.609375 -4.921875 C 1.359375 -4.484375 1.234375 -4 1.234375 -3.46875 C 1.234375 -2.925781 1.359375 -2.429688 1.609375 -1.984375 C 1.867188 -1.546875 2.21875 -1.203125 2.65625 -0.953125 C 3.101562 -0.710938 3.601562 -0.59375 4.15625 -0.59375 Z M 4.15625 -0.59375 "/></g></g></g><g fill="#424669" fill-opacity="1"><g transform="translate(166.617535, 290.4642)"><g><path d="M 6 -3.46875 L 6.703125 -3.46875 L 6.703125 -0.828125 C 6.378906 -0.535156 5.992188 -0.3125 5.546875 -0.15625 C 5.109375 -0.0078125 4.644531 0.0625 4.15625 0.0625 C 3.46875 0.0625 2.847656 -0.0859375 2.296875 -0.390625 C 1.742188 -0.691406 1.304688 -1.113281 0.984375 -1.65625 C 0.671875 -2.195312 0.515625 -2.800781 0.515625 -3.46875 C 0.515625 -4.125 0.671875 -4.722656 0.984375 -5.265625 C 1.304688 -5.804688 1.742188 -6.226562 2.296875 -6.53125 C 2.847656 -6.832031 3.472656 -6.984375 4.171875 -6.984375 C 4.703125 -6.984375 5.1875 -6.898438 5.625 -6.734375 C 6.070312 -6.566406 6.445312 -6.316406 6.75 -5.984375 L 6.296875 -5.515625 C 5.742188 -6.054688 5.046875 -6.328125 4.203125 -6.328125 C 3.640625 -6.328125 3.128906 -6.203125 2.671875 -5.953125 C 2.222656 -5.710938 1.867188 -5.367188 1.609375 -4.921875 C 1.359375 -4.484375 1.234375 -4 1.234375 -3.46875 C 1.234375 -2.925781 1.359375 -2.4375 1.609375 -2 C 1.867188 -1.5625 2.222656 -1.21875 2.671875 -0.96875 C 3.128906 -0.71875 3.632812 -0.59375 4.1875 -0.59375 C 4.90625 -0.59375 5.507812 -0.769531 6 -1.125 Z M 6 -3.46875 "/></g></g></g><g fill="#424669" fill-opacity="1"><g transform="translate(177.516321, 290.4642)"><g><path d="M 5.859375 0 L 4.265625 -2.21875 C 4.085938 -2.207031 3.90625 -2.203125 3.71875 -2.203125 L 1.859375 -2.203125 L 1.859375 0 L 1.125 0 L 1.125 -6.921875 L 3.71875 -6.921875 C 4.601562 -6.921875 5.296875 -6.707031 5.796875 -6.28125 C 6.296875 -5.863281 6.546875 -5.285156 6.546875 -4.546875 C 6.546875 -4.003906 6.410156 -3.546875 6.140625 -3.171875 C 5.867188 -2.804688 5.476562 -2.539062 4.96875 -2.375 L 6.65625 0 Z M 3.703125 -2.8125 C 4.390625 -2.8125 4.910156 -2.960938 5.265625 -3.265625 C 5.628906 -3.578125 5.8125 -4.003906 5.8125 -4.546875 C 5.8125 -5.109375 5.628906 -5.539062 5.265625 -5.84375 C 4.910156 -6.144531 4.390625 -6.296875 3.703125 -6.296875 L 1.859375 -6.296875 L 1.859375 -2.8125 Z M 3.703125 -2.8125 "/></g></g></g><g fill="#424669" fill-opacity="1"><g transform="translate(187.921157, 290.4642)"><g><path d="M 5.46875 -1.84375 L 1.609375 -1.84375 L 0.78125 0 L 0.015625 0 L 3.1875 -6.921875 L 3.90625 -6.921875 L 7.078125 0 L 6.296875 0 Z M 5.203125 -2.4375 L 3.546875 -6.15625 L 1.875 -2.4375 Z M 5.203125 -2.4375 "/></g></g></g><g fill="#424669" fill-opacity="1"><g transform="translate(198.266724, 290.4642)"><g><path d="M 8.3125 -6.921875 L 8.3125 0 L 7.609375 0 L 7.609375 -5.53125 L 4.890625 -0.875 L 4.546875 -0.875 L 1.828125 -5.515625 L 1.828125 0 L 1.125 0 L 1.125 -6.921875 L 1.734375 -6.921875 L 4.734375 -1.796875 L 7.71875 -6.921875 Z M 8.3125 -6.921875 "/></g></g></g><g fill="#424669" fill-opacity="1"><g transform="translate(210.963479, 290.4642)"><g><path d="M 8.3125 -6.921875 L 8.3125 0 L 7.609375 0 L 7.609375 -5.53125 L 4.890625 -0.875 L 4.546875 -0.875 L 1.828125 -5.515625 L 1.828125 0 L 1.125 0 L 1.125 -6.921875 L 1.734375 -6.921875 L 4.734375 -1.796875 L 7.71875 -6.921875 Z M 8.3125 -6.921875 "/></g></g></g><g fill="#424669" fill-opacity="1"><g transform="translate(223.660234, 290.4642)"><g><path d="M 6.015625 -0.640625 L 6.015625 0 L 1.125 0 L 1.125 -6.921875 L 5.875 -6.921875 L 5.875 -6.296875 L 1.859375 -6.296875 L 1.859375 -3.828125 L 5.4375 -3.828125 L 5.4375 -3.203125 L 1.859375 -3.203125 L 1.859375 -0.640625 Z M 6.015625 -0.640625 "/></g></g></g><g fill="#424669" fill-opacity="1"><g transform="translate(233.531615, 290.4642)"><g><path d="M 5.859375 0 L 4.265625 -2.21875 C 4.085938 -2.207031 3.90625 -2.203125 3.71875 -2.203125 L 1.859375 -2.203125 L 1.859375 0 L 1.125 0 L 1.125 -6.921875 L 3.71875 -6.921875 C 4.601562 -6.921875 5.296875 -6.707031 5.796875 -6.28125 C 6.296875 -5.863281 6.546875 -5.285156 6.546875 -4.546875 C 6.546875 -4.003906 6.410156 -3.546875 6.140625 -3.171875 C 5.867188 -2.804688 5.476562 -2.539062 4.96875 -2.375 L 6.65625 0 Z M 3.703125 -2.8125 C 4.390625 -2.8125 4.910156 -2.960938 5.265625 -3.265625 C 5.628906 -3.578125 5.8125 -4.003906 5.8125 -4.546875 C 5.8125 -5.109375 5.628906 -5.539062 5.265625 -5.84375 C 4.910156 -6.144531 4.390625 -6.296875 3.703125 -6.296875 L 1.859375 -6.296875 L 1.859375 -2.8125 Z M 3.703125 -2.8125 "/></g></g></g><g clip-path="url(#aba904cd09)"><g clip-path="url(#21d3de9a25)"><path fill="#a4aad8" d="M 152.21875 100.027344 L 160.359375 100.027344 L 160.359375 108.167969 L 152.21875 108.167969 Z M 152.21875 100.027344 " fill-opacity="1" fill-rule="nonzero"/></g></g></svg>