<?xml version="1.0" standalone="no"?>
<svg xmlns:xlink="http://www.w3.org/1999/xlink" id="wave" style="transform:rotate(0deg); transition: 0.3s" viewBox="0 0 1440 400" version="1.1" xmlns="http://www.w3.org/2000/svg"><defs><linearGradient id="sw-gradient-0" x1="0" x2="0" y1="1" y2="0"><stop stop-color="rgba(243, 106, 62, 1)" offset="0%"/><stop stop-color="rgba(255, 179, 11, 1)" offset="100%"/></linearGradient></defs><path style="transform:translate(0, 0px); opacity:1" fill="url(#sw-gradient-0)" d="M0,80L80,126.7C160,173,320,267,480,306.7C640,347,800,333,960,326.7C1120,320,1280,320,1440,300C1600,280,1760,240,1920,186.7C2080,133,2240,67,2400,93.3C2560,120,2720,240,2880,266.7C3040,293,3200,227,3360,180C3520,133,3680,107,3840,100C4000,93,4160,107,4320,140C4480,173,4640,227,4800,206.7C4960,187,5120,93,5280,106.7C5440,120,5600,240,5760,266.7C5920,293,6080,227,6240,180C6400,133,6560,107,6720,126.7C6880,147,7040,213,7200,246.7C7360,280,7520,280,7680,273.3C7840,267,8000,253,8160,226.7C8320,200,8480,160,8640,120C8800,80,8960,40,9120,66.7C9280,93,9440,187,9600,246.7C9760,307,9920,333,10080,340C10240,347,10400,333,10560,306.7C10720,280,10880,240,11040,246.7C11200,253,11360,307,11440,333.3L11520,360L11520,400L11440,400C11360,400,11200,400,11040,400C10880,400,10720,400,10560,400C10400,400,10240,400,10080,400C9920,400,9760,400,9600,400C9440,400,9280,400,9120,400C8960,400,8800,400,8640,400C8480,400,8320,400,8160,400C8000,400,7840,400,7680,400C7520,400,7360,400,7200,400C7040,400,6880,400,6720,400C6560,400,6400,400,6240,400C6080,400,5920,400,5760,400C5600,400,5440,400,5280,400C5120,400,4960,400,4800,400C4640,400,4480,400,4320,400C4160,400,4000,400,3840,400C3680,400,3520,400,3360,400C3200,400,3040,400,2880,400C2720,400,2560,400,2400,400C2240,400,2080,400,1920,400C1760,400,1600,400,1440,400C1280,400,1120,400,960,400C800,400,640,400,480,400C320,400,160,400,80,400L0,400Z"/><defs><linearGradient id="sw-gradient-1" x1="0" x2="0" y1="1" y2="0"><stop stop-color="rgba(243, 106, 62, 1)" offset="0%"/><stop stop-color="rgba(255, 179, 11, 1)" offset="100%"/></linearGradient></defs><path style="transform:translate(0, 50px); opacity:0.9" fill="url(#sw-gradient-1)" d="M0,160L80,180C160,200,320,240,480,253.3C640,267,800,253,960,260C1120,267,1280,293,1440,273.3C1600,253,1760,187,1920,153.3C2080,120,2240,120,2400,153.3C2560,187,2720,253,2880,246.7C3040,240,3200,160,3360,166.7C3520,173,3680,267,3840,273.3C4000,280,4160,200,4320,193.3C4480,187,4640,253,4800,233.3C4960,213,5120,107,5280,60C5440,13,5600,27,5760,53.3C5920,80,6080,120,6240,140C6400,160,6560,160,6720,166.7C6880,173,7040,187,7200,220C7360,253,7520,307,7680,306.7C7840,307,8000,253,8160,220C8320,187,8480,173,8640,173.3C8800,173,8960,187,9120,193.3C9280,200,9440,200,9600,180C9760,160,9920,120,10080,126.7C10240,133,10400,187,10560,206.7C10720,227,10880,213,11040,213.3C11200,213,11360,227,11440,233.3L11520,240L11520,400L11440,400C11360,400,11200,400,11040,400C10880,400,10720,400,10560,400C10400,400,10240,400,10080,400C9920,400,9760,400,9600,400C9440,400,9280,400,9120,400C8960,400,8800,400,8640,400C8480,400,8320,400,8160,400C8000,400,7840,400,7680,400C7520,400,7360,400,7200,400C7040,400,6880,400,6720,400C6560,400,6400,400,6240,400C6080,400,5920,400,5760,400C5600,400,5440,400,5280,400C5120,400,4960,400,4800,400C4640,400,4480,400,4320,400C4160,400,4000,400,3840,400C3680,400,3520,400,3360,400C3200,400,3040,400,2880,400C2720,400,2560,400,2400,400C2240,400,2080,400,1920,400C1760,400,1600,400,1440,400C1280,400,1120,400,960,400C800,400,640,400,480,400C320,400,160,400,80,400L0,400Z"/><defs><linearGradient id="sw-gradient-2" x1="0" x2="0" y1="1" y2="0"><stop stop-color="rgba(243, 106, 62, 1)" offset="0%"/><stop stop-color="rgba(255, 179, 11, 1)" offset="100%"/></linearGradient></defs><path style="transform:translate(0, 100px); opacity:0.8" fill="url(#sw-gradient-2)" d="M0,200L80,220C160,240,320,280,480,306.7C640,333,800,347,960,340C1120,333,1280,307,1440,266.7C1600,227,1760,173,1920,166.7C2080,160,2240,200,2400,240C2560,280,2720,320,2880,306.7C3040,293,3200,227,3360,200C3520,173,3680,187,3840,160C4000,133,4160,67,4320,86.7C4480,107,4640,213,4800,226.7C4960,240,5120,160,5280,120C5440,80,5600,80,5760,73.3C5920,67,6080,53,6240,93.3C6400,133,6560,227,6720,273.3C6880,320,7040,320,7200,326.7C7360,333,7520,347,7680,340C7840,333,8000,307,8160,300C8320,293,8480,307,8640,306.7C8800,307,8960,293,9120,246.7C9280,200,9440,120,9600,86.7C9760,53,9920,67,10080,113.3C10240,160,10400,240,10560,240C10720,240,10880,160,11040,126.7C11200,93,11360,107,11440,113.3L11520,120L11520,400L11440,400C11360,400,11200,400,11040,400C10880,400,10720,400,10560,400C10400,400,10240,400,10080,400C9920,400,9760,400,9600,400C9440,400,9280,400,9120,400C8960,400,8800,400,8640,400C8480,400,8320,400,8160,400C8000,400,7840,400,7680,400C7520,400,7360,400,7200,400C7040,400,6880,400,6720,400C6560,400,6400,400,6240,400C6080,400,5920,400,5760,400C5600,400,5440,400,5280,400C5120,400,4960,400,4800,400C4640,400,4480,400,4320,400C4160,400,4000,400,3840,400C3680,400,3520,400,3360,400C3200,400,3040,400,2880,400C2720,400,2560,400,2400,400C2240,400,2080,400,1920,400C1760,400,1600,400,1440,400C1280,400,1120,400,960,400C800,400,640,400,480,400C320,400,160,400,80,400L0,400Z"/><defs><linearGradient id="sw-gradient-3" x1="0" x2="0" y1="1" y2="0"><stop stop-color="rgba(243, 106, 62, 1)" offset="0%"/><stop stop-color="rgba(255, 179, 11, 1)" offset="100%"/></linearGradient></defs><path style="transform:translate(0, 150px); opacity:0.7" fill="url(#sw-gradient-3)" d="M0,200L80,200C160,200,320,200,480,166.7C640,133,800,67,960,40C1120,13,1280,27,1440,26.7C1600,27,1760,13,1920,13.3C2080,13,2240,27,2400,80C2560,133,2720,227,2880,273.3C3040,320,3200,320,3360,280C3520,240,3680,160,3840,166.7C4000,173,4160,267,4320,253.3C4480,240,4640,120,4800,86.7C4960,53,5120,107,5280,106.7C5440,107,5600,53,5760,26.7C5920,0,6080,0,6240,46.7C6400,93,6560,187,6720,193.3C6880,200,7040,120,7200,113.3C7360,107,7520,173,7680,180C7840,187,8000,133,8160,113.3C8320,93,8480,107,8640,106.7C8800,107,8960,93,9120,120C9280,147,9440,213,9600,206.7C9760,200,9920,120,10080,106.7C10240,93,10400,147,10560,186.7C10720,227,10880,253,11040,240C11200,227,11360,173,11440,146.7L11520,120L11520,400L11440,400C11360,400,11200,400,11040,400C10880,400,10720,400,10560,400C10400,400,10240,400,10080,400C9920,400,9760,400,9600,400C9440,400,9280,400,9120,400C8960,400,8800,400,8640,400C8480,400,8320,400,8160,400C8000,400,7840,400,7680,400C7520,400,7360,400,7200,400C7040,400,6880,400,6720,400C6560,400,6400,400,6240,400C6080,400,5920,400,5760,400C5600,400,5440,400,5280,400C5120,400,4960,400,4800,400C4640,400,4480,400,4320,400C4160,400,4000,400,3840,400C3680,400,3520,400,3360,400C3200,400,3040,400,2880,400C2720,400,2560,400,2400,400C2240,400,2080,400,1920,400C1760,400,1600,400,1440,400C1280,400,1120,400,960,400C800,400,640,400,480,400C320,400,160,400,80,400L0,400Z"/></svg>