<svg id="wave" style="transform:rotate(0deg); transition: 0.3s" viewBox="0 0 1440 490" version="1.1" xmlns="http://www.w3.org/2000/svg"><defs><linearGradient id="sw-gradient-0" x1="0" x2="0" y1="1" y2="0"><stop stop-color="rgba(99, 91, 255, 1)" offset="0%"></stop><stop stop-color="rgba(148, 143, 251, 1)" offset="100%"></stop></linearGradient></defs><path style="transform:translate(0, 0px); opacity:1" fill="url(#sw-gradient-0)" d="M0,49L60,106.2C120,163,240,278,360,318.5C480,359,600,327,720,326.7C840,327,960,359,1080,367.5C1200,376,1320,359,1440,310.3C1560,261,1680,180,1800,155.2C1920,131,2040,163,2160,196C2280,229,2400,261,2520,261.3C2640,261,2760,229,2880,236.8C3000,245,3120,294,3240,310.3C3360,327,3480,310,3600,294C3720,278,3840,261,3960,245C4080,229,4200,212,4320,236.8C4440,261,4560,327,4680,343C4800,359,4920,327,5040,318.5C5160,310,5280,327,5400,351.2C5520,376,5640,408,5760,392C5880,376,6000,310,6120,285.8C6240,261,6360,278,6480,261.3C6600,245,6720,196,6840,196C6960,196,7080,245,7200,269.5C7320,294,7440,294,7560,302.2C7680,310,7800,327,7920,277.7C8040,229,8160,114,8280,130.7C8400,147,8520,294,8580,367.5L8640,441L8640,490L8580,490C8520,490,8400,490,8280,490C8160,490,8040,490,7920,490C7800,490,7680,490,7560,490C7440,490,7320,490,7200,490C7080,490,6960,490,6840,490C6720,490,6600,490,6480,490C6360,490,6240,490,6120,490C6000,490,5880,490,5760,490C5640,490,5520,490,5400,490C5280,490,5160,490,5040,490C4920,490,4800,490,4680,490C4560,490,4440,490,4320,490C4200,490,4080,490,3960,490C3840,490,3720,490,3600,490C3480,490,3360,490,3240,490C3120,490,3000,490,2880,490C2760,490,2640,490,2520,490C2400,490,2280,490,2160,490C2040,490,1920,490,1800,490C1680,490,1560,490,1440,490C1320,490,1200,490,1080,490C960,490,840,490,720,490C600,490,480,490,360,490C240,490,120,490,60,490L0,490Z"></path><defs><linearGradient id="sw-gradient-1" x1="0" x2="0" y1="1" y2="0"><stop stop-color="rgba(99, 91, 255, 1)" offset="0%"></stop><stop stop-color="rgba(148, 143, 251, 1)" offset="100%"></stop></linearGradient></defs><path style="transform:translate(0, 50px); opacity:0.9" fill="url(#sw-gradient-1)" d="M0,49L60,98C120,147,240,245,360,285.8C480,327,600,310,720,253.2C840,196,960,98,1080,98C1200,98,1320,196,1440,228.7C1560,261,1680,229,1800,228.7C1920,229,2040,261,2160,236.8C2280,212,2400,131,2520,106.2C2640,82,2760,114,2880,163.3C3000,212,3120,278,3240,253.2C3360,229,3480,114,3600,89.8C3720,65,3840,131,3960,179.7C4080,229,4200,261,4320,261.3C4440,261,4560,229,4680,196C4800,163,4920,131,5040,163.3C5160,196,5280,294,5400,351.2C5520,408,5640,425,5760,424.7C5880,425,6000,408,6120,351.2C6240,294,6360,196,6480,155.2C6600,114,6720,131,6840,163.3C6960,196,7080,245,7200,269.5C7320,294,7440,294,7560,253.2C7680,212,7800,131,7920,114.3C8040,98,8160,147,8280,204.2C8400,261,8520,327,8580,359.3L8640,392L8640,490L8580,490C8520,490,8400,490,8280,490C8160,490,8040,490,7920,490C7800,490,7680,490,7560,490C7440,490,7320,490,7200,490C7080,490,6960,490,6840,490C6720,490,6600,490,6480,490C6360,490,6240,490,6120,490C6000,490,5880,490,5760,490C5640,490,5520,490,5400,490C5280,490,5160,490,5040,490C4920,490,4800,490,4680,490C4560,490,4440,490,4320,490C4200,490,4080,490,3960,490C3840,490,3720,490,3600,490C3480,490,3360,490,3240,490C3120,490,3000,490,2880,490C2760,490,2640,490,2520,490C2400,490,2280,490,2160,490C2040,490,1920,490,1800,490C1680,490,1560,490,1440,490C1320,490,1200,490,1080,490C960,490,840,490,720,490C600,490,480,490,360,490C240,490,120,490,60,490L0,490Z"></path><defs><linearGradient id="sw-gradient-2" x1="0" x2="0" y1="1" y2="0"><stop stop-color="rgba(99, 91, 255, 1)" offset="0%"></stop><stop stop-color="rgba(148, 143, 251, 1)" offset="100%"></stop></linearGradient></defs><path style="transform:translate(0, 100px); opacity:0.8" fill="url(#sw-gradient-2)" d="M0,196L60,228.7C120,261,240,327,360,326.7C480,327,600,261,720,245C840,229,960,261,1080,285.8C1200,310,1320,327,1440,351.2C1560,376,1680,408,1800,408.3C1920,408,2040,376,2160,367.5C2280,359,2400,376,2520,375.7C2640,376,2760,359,2880,359.3C3000,359,3120,376,3240,367.5C3360,359,3480,327,3600,269.5C3720,212,3840,131,3960,155.2C4080,180,4200,310,4320,351.2C4440,392,4560,343,4680,277.7C4800,212,4920,131,5040,106.2C5160,82,5280,114,5400,179.7C5520,245,5640,343,5760,318.5C5880,294,6000,147,6120,114.3C6240,82,6360,163,6480,228.7C6600,294,6720,343,6840,343C6960,343,7080,294,7200,253.2C7320,212,7440,180,7560,171.5C7680,163,7800,180,7920,171.5C8040,163,8160,131,8280,155.2C8400,180,8520,261,8580,302.2L8640,343L8640,490L8580,490C8520,490,8400,490,8280,490C8160,490,8040,490,7920,490C7800,490,7680,490,7560,490C7440,490,7320,490,7200,490C7080,490,6960,490,6840,490C6720,490,6600,490,6480,490C6360,490,6240,490,6120,490C6000,490,5880,490,5760,490C5640,490,5520,490,5400,490C5280,490,5160,490,5040,490C4920,490,4800,490,4680,490C4560,490,4440,490,4320,490C4200,490,4080,490,3960,490C3840,490,3720,490,3600,490C3480,490,3360,490,3240,490C3120,490,3000,490,2880,490C2760,490,2640,490,2520,490C2400,490,2280,490,2160,490C2040,490,1920,490,1800,490C1680,490,1560,490,1440,490C1320,490,1200,490,1080,490C960,490,840,490,720,490C600,490,480,490,360,490C240,490,120,490,60,490L0,490Z"></path></svg>